<?xml version="1.0" standalone="no"?><!DOCTYPE svg PUBLIC "-//W3C//DTD SVG 1.1//EN" "http://www.w3.org/Graphics/SVG/1.1/DTD/svg11.dtd"><svg class="icon" width="200px" height="200.00px" viewBox="0 0 1024 1024" version="1.1" xmlns="http://www.w3.org/2000/svg"><path fill="#000000" d="M571.733333 512l268.8-268.8c17.066667-17.066667 17.066667-42.666667 0-59.733333-17.066667-17.066667-42.666667-17.066667-59.733333 0L512 452.266667 243.2 183.466667c-17.066667-17.066667-42.666667-17.066667-59.733333 0-17.066667 17.066667-17.066667 42.666667 0 59.733333l268.8 268.8-268.8 268.8c-17.066667 17.066667-17.066667 42.666667 0 59.733333 8.533333 8.533333 17.066667 12.8 29.866666 12.8 12.8 0 21.333333-4.266667 29.866667-12.8l268.8-268.8 268.8 268.8c8.533333 8.533333 17.066667 12.8 29.866667 12.8s21.333333-4.266667 29.866666-12.8c17.066667-17.066667 17.066667-42.666667 0-59.733333L571.733333 512z"  /></svg>