<?xml version="1.0" standalone="no"?><!DOCTYPE svg PUBLIC "-//W3C//DTD SVG 1.1//EN" "http://www.w3.org/Graphics/SVG/1.1/DTD/svg11.dtd"><svg class="icon" width="200px" height="200.00px" viewBox="0 0 1024 1024" version="1.1" xmlns="http://www.w3.org/2000/svg"><path fill="#000000" d="M518.372 13.895c-272.691 0-490.843 218.152-490.843 490.843 0 86.353 22.724 163.615 59.083 231.787 4.546 18.18 22.724 36.358 40.903 36.358 22.724 0 45.449-18.18 45.449-45.449v-4.546c0-9.089-4.546-18.18-9.089-27.269-31.814-54.538-49.994-122.71-49.994-190.884 0-222.698 181.793-399.947 399.947-399.947 222.698 0 399.947 181.793 399.947 399.947 0 222.698-181.793 399.947-399.947 399.947-86.353 0-168.159-27.269-236.333-77.262-9.089-9.089-18.18-13.634-31.814-13.634-22.724 0-45.449 18.18-45.449 45.449v4.546c0 18.18 13.634 36.358 31.814 40.903 81.807 54.538 177.249 90.897 281.779 90.897 272.691 0 490.843-218.152 490.843-490.843 4.546-272.691-213.607-490.843-486.297-490.843zM518.372 191.143c-22.724 0-45.449 18.18-45.449 45.449v268.145c0 4.546 0 13.634 4.546 18.18 4.546 18.18 22.724 27.269 40.903 27.269h268.145c22.724 0 45.449-18.18 45.449-45.449 0-22.724-18.18-45.449-45.449-45.449h-222.698v-222.698c0-22.724-22.724-45.449-45.449-45.449z"  /></svg>