<?xml version="1.0" standalone="no"?><!DOCTYPE svg PUBLIC "-//W3C//DTD SVG 1.1//EN" "http://www.w3.org/Graphics/SVG/1.1/DTD/svg11.dtd"><svg class="icon" width="200px" height="200.00px" viewBox="0 0 1024 1024" version="1.1" xmlns="http://www.w3.org/2000/svg"><path fill="#000000" d="M513 917.9c-24.8 0-44.9-20.1-44.9-44.9l0.7-723.7c0-24.8 20.1-44.8 44.9-44.8 24.8 0 44.8 20.1 44.8 44.9l-0.7 723.7c0 24.7-20 44.8-44.8 44.8z"  /><path fill="#000000" d="M513 916.9c-54 0-104.8-21-142.9-59.2l-259-258.9c-17.5-17.5-17.5-45.9 0-63.4s45.9-17.5 63.4 0l258.9 258.9c21.2 21.2 49.5 32.9 79.5 32.9s58.3-11.7 79.5-32.9l258.9-258.9c17.5-17.5 45.9-17.5 63.4 0s17.5 45.9 0 63.4L655.9 857.7c-38.1 38.2-88.9 59.2-142.9 59.2z"  /></svg>